<?xml version="1.0" standalone="no"?>
<!DOCTYPE svg PUBLIC "-//W3C//DTD SVG 20010904//EN"
 "http://www.w3.org/TR/2001/REC-SVG-20010904/DTD/svg10.dtd">
<svg version="1.0" xmlns="http://www.w3.org/2000/svg"
 width="662.000000pt" height="662.000000pt" viewBox="0 0 662.000000 662.000000"
 preserveAspectRatio="xMidYMid meet">
<metadata>
Created by potrace 1.11, written by Peter Selinger 2001-2013
</metadata>
<g transform="translate(0.000000,662.000000) scale(0.100000,-0.100000)"
fill="#000000" stroke="none">
<path d="M2500 6059 c-74 -33 -143 -131 -149 -211 -3 -42 45 -148 81 -179 62
-54 176 -79 258 -55 101 29 188 147 178 240 -10 88 -71 170 -151 206 -54 24
-162 24 -217 -1z"/>
<path d="M3930 6071 c-78 -25 -135 -78 -168 -156 -44 -106 19 -243 135 -291
50 -21 141 -24 196 -6 81 26 148 105 164 192 2 13 6 26 8 28 8 9 -21 82 -52
129 -31 48 -84 91 -123 102 -32 8 -136 10 -160 2z"/>
<path d="M2550 4977 c-25 -5 -49 -13 -54 -18 -6 -5 -16 -9 -22 -9 -27 0 -141
-75 -186 -122 -109 -113 -136 -268 -75 -418 6 -14 11 -27 11 -30 5 -21 58 -83
103 -120 105 -88 203 -122 333 -115 137 6 214 47 348 182 56 58 102 103 102
100 0 -3 21 2 48 10 47 15 146 26 211 23 41 -1 160 -42 207 -70 18 -12 48 -41
64 -64 49 -67 154 -139 244 -167 51 -15 148 -19 213 -9 145 24 327 176 348
293 3 12 9 42 15 67 15 63 -2 166 -40 239 -35 70 -139 155 -248 203 -82 37
-170 42 -264 17 -138 -38 -202 -80 -296 -195 -43 -53 -54 -59 -157 -91 -69
-21 -193 -23 -259 -3 -97 29 -151 61 -180 110 -15 25 -41 55 -57 65 -16 11
-29 23 -29 28 0 4 -5 7 -12 7 -6 0 -27 12 -46 27 -19 14 -44 27 -56 29 -11 1
-34 7 -50 13 -60 24 -149 31 -216 18z"/>
<path d="M1420 4892 c-79 -9 -190 -46 -190 -64 0 -4 -6 -8 -12 -8 -12 0 -34
-23 -92 -94 -47 -57 -64 -174 -37 -254 16 -47 64 -117 106 -155 11 -10 49 -32
84 -49 54 -27 75 -31 145 -31 79 -1 105 5 191 43 98 44 179 180 177 297 -2 91
-110 241 -202 282 -50 22 -132 38 -170 33z"/>
<path d="M5061 4870 c-68 -25 -93 -41 -147 -98 -77 -80 -101 -154 -83 -257 35
-199 221 -313 439 -269 116 23 182 76 236 187 29 62 32 76 30 145 -3 88 -12
109 -82 190 -20 24 -50 52 -66 63 -81 58 -228 75 -327 39z"/>
<path d="M3960 3729 c-136 -15 -258 -88 -337 -201 -31 -46 -118 -91 -192 -102
-23 -3 -46 -8 -52 -11 -32 -20 -94 -14 -196 20 -93 31 -113 41 -138 73 -90
112 -168 169 -284 207 -65 21 -214 17 -272 -9 -20 -8 -39 -12 -43 -9 -3 4 -6
1 -6 -5 0 -7 -5 -12 -11 -12 -17 0 -98 -60 -143 -106 -40 -40 -85 -114 -94
-152 -9 -37 -8 -156 1 -195 37 -164 172 -291 349 -327 113 -23 236 -3 333 55
36 21 124 109 182 183 16 21 70 41 158 58 55 11 149 11 210 -1 78 -15 183 -62
190 -86 12 -37 123 -137 187 -168 79 -39 94 -43 198 -47 70 -3 98 1 159 22 84
28 124 55 199 134 56 59 75 91 66 114 -3 8 6 34 19 58 21 36 24 53 22 109 -11
211 -171 363 -425 402 -8 2 -44 0 -80 -4z"/>
<path d="M1335 3628 c-167 -51 -261 -176 -258 -344 2 -112 114 -240 249 -288
52 -18 173 -14 234 8 73 27 137 76 165 127 14 26 25 53 25 62 0 8 6 20 14 26
16 14 30 80 27 130 -4 70 -75 175 -156 231 -77 53 -211 75 -300 48z"/>
<path d="M5037 3605 c-109 -47 -125 -61 -177 -158 -34 -62 -44 -135 -28 -196
5 -18 11 -43 14 -54 2 -11 7 -23 11 -26 5 -3 14 -18 22 -33 24 -46 93 -103
156 -128 48 -20 77 -24 150 -24 148 1 234 50 313 179 36 58 37 63 36 150 -1
71 -6 100 -22 132 -27 52 -95 110 -180 154 -56 28 -78 34 -142 36 -67 2 -85
-2 -153 -32z"/>
<path d="M185 3541 c-62 -15 -117 -54 -156 -111 -20 -29 -24 -47 -24 -106 0
-154 83 -238 245 -248 93 -6 210 57 226 121 4 13 10 23 14 23 12 0 26 92 20
137 -18 129 -178 219 -325 184z"/>
<path d="M6285 3538 c-72 -27 -111 -55 -146 -107 -37 -55 -39 -62 -40 -122 -1
-76 62 -171 136 -208 94 -47 250 -26 311 41 33 36 70 119 73 164 5 81 -69 187
-157 225 -48 21 -129 24 -177 7z"/>
<path d="M2490 2454 c-82 -28 -137 -63 -196 -126 -106 -112 -134 -213 -99
-361 32 -138 143 -252 295 -302 64 -21 179 -28 236 -14 21 5 46 11 55 13 71
17 196 109 239 175 22 33 45 55 73 67 23 11 44 18 47 18 3 -1 16 3 30 8 94 36
283 26 360 -18 14 -8 37 -20 52 -25 14 -6 31 -23 37 -38 30 -70 162 -172 243
-186 17 -3 35 -8 40 -11 4 -3 42 -7 84 -9 87 -4 184 14 245 46 56 28 174 146
183 183 4 15 16 41 28 56 16 23 20 43 21 112 0 45 -3 98 -7 116 -12 60 -54
128 -105 174 -54 49 -176 115 -221 120 -3 0 -16 5 -29 10 -25 9 -152 12 -186
4 -80 -19 -181 -67 -222 -104 -16 -15 -44 -48 -61 -73 -33 -49 -113 -99 -182
-114 -54 -12 -163 -14 -216 -4 -27 5 -59 11 -70 13 -50 9 -130 72 -184 144
-23 30 -116 102 -132 102 -8 0 -18 4 -23 9 -22 19 -95 35 -176 37 -69 2 -101
-3 -159 -22z"/>
<path d="M1344 2381 c-132 -33 -260 -171 -267 -288 -3 -52 13 -145 30 -178 15
-28 112 -116 150 -138 95 -52 230 -59 323 -16 93 44 176 136 195 217 42 179
-43 332 -217 391 -56 19 -162 25 -214 12z"/>
<path d="M5085 2376 c-66 -21 -117 -52 -169 -102 -57 -56 -87 -116 -91 -185
-4 -62 23 -167 50 -195 11 -12 29 -32 40 -46 90 -111 282 -150 415 -85 64 32
146 105 181 162 21 35 24 52 24 130 -1 100 -13 138 -62 190 -94 98 -169 137
-273 141 -41 1 -93 -3 -115 -10z"/>
<path d="M2597 1024 c-3 -3 -20 -8 -39 -10 -117 -18 -200 -114 -200 -231 0
-134 96 -231 238 -239 112 -6 197 45 249 150 44 89 29 171 -44 244 -46 45
-102 73 -157 77 -11 1 -25 5 -31 8 -6 4 -13 4 -16 1z"/>
<path d="M3950 1014 c-53 -19 -124 -61 -147 -88 -96 -113 -75 -246 53 -332 66
-44 63 -43 147 -48 72 -5 126 15 177 65 76 75 104 176 68 248 -26 53 -91 119
-136 138 -37 17 -134 26 -162 17z"/>
</g>
</svg>
