<svg xmlns="http://www.w3.org/2000/svg" viewBox="0 0 330.98 277"><defs><style>.cls-1{fill:#5c52a3;}.cls-2{fill:#576ab2;}.cls-3{fill:#5e50a1;}.cls-4{fill:#5283c3;}.cls-5{fill:#5c56a5;}.cls-6{fill:#566cb3;}.cls-7{fill:#5e4c9f;}.cls-8{fill:#528ac8;}.cls-9{fill:#5d54a4;}.cls-10{fill:#5286c6;}.cls-11{fill:#566eb4;}.cls-12{fill:#5671b6;}.cls-13{fill:#537fc1;}.cls-14{fill:#5866af;}.cls-15{fill:#5e4da0;}.cls-16{fill:#5768b0;}.cls-17{fill:#5c54a4;}.cls-18{fill:#653895;}.cls-19{fill:#5381c2;}.cls-20{fill:#566eb5;}.cls-21{fill:#5284c4;}.cls-22{fill:#5868b0;}.cls-23{fill:#5c57a6;}.cls-24{fill:#576cb3;}.cls-25{fill:#663393;}.cls-26{fill:#5769b1;}.cls-27{fill:#5287c6;}.cls-28{fill:#549fd7;}.cls-29{fill:#566db4;}.cls-30{fill:#5d53a3;}.cls-31{fill:#653694;}.cls-32{fill:#5670b6;}.cls-33{fill:#576eb4;}.cls-34{fill:#5f4da0;}.cls-35{fill:#5d4fa1;}.cls-36{fill:#55a2d9;}.cls-37{fill:#549ed6;}.cls-38{fill:#539dd5;}.cls-39{fill:#538ac8;}.cls-40{fill:#5672b7;}.cls-41{fill:#54a3da;}.cls-42{fill:#614b9f;}.cls-43{fill:#5e58a6;}.cls-44{fill:#558ecb;}.cls-45{fill:#673b97;}.cls-46{fill:#5771b7;}.cls-47{fill:#5b72b7;}.cls-48{fill:#5590cc;}.cls-49{fill:#5f5ca8;}.cls-50{fill:#5383c3;}</style></defs><title>Asset 1</title><g id="Layer_2" data-name="Layer 2"><g id="Layer_1-2" data-name="Layer 1"><path class="cls-1" d="M157,194.42a29.73,29.73,0,0,0,18.51,0c7.11-2.1,14.43-1.14,21.68-1.28,5.85-.11,11.71-.06,17.56,0,7.46.07,8.7,1.47,7.76,8.52-1.86,1.45-4.14,1.25-6.32,1.25q-49.92,0-99.83,0c-2,0-4.13.12-5.92-1.09-1.37-5.95-.32-7.71,5.48-7.72C129.56,194.05,143.27,193.47,157,194.42Z"/><path class="cls-2" d="M180.42,147.8c-8.09-5-16.64-5.15-25.49-2.07-6.06-1-12.16-.31-18.24-.45-5.79-.12-11.59,0-17.39,0a17.28,17.28,0,0,0-8.18,1.5,2.67,2.67,0,0,1-1-2.51,11,11,0,0,1,.19-6.7c1.93-1.32,4.21-1.11,6.39-1.12q49.59,0,99.19,0c2,0,4.13-.1,6,.87,1.5,1.78,1,3.69.42,5.61a.49.49,0,0,1-.6.26c-2.09,1.33-4.49,1.17-6.84,1.17-9.91,0-19.84.1-29.75-.06C182.21,144.23,180.34,144.72,180.42,147.8Z"/><path class="cls-3" d="M110.27,201.47H222.32c.82,1.67,1,3.2-1.06,4.27-3.24,1-6.58.53-9.87.57-12.16.14-24.33-.18-36.48.19-7.65-1.39-15.11-1.55-21.89,2.84l-1,.83c-11.33-.83-22.69-.23-34-.4a17.65,17.65,0,0,0-5.9,1.37c-1.23-1.16-2.18-2.44-2-4.17A8,8,0,0,1,110.27,201.47Z"/><path class="cls-4" d="M182.4,88.31c-2.54-4.66-7.65-5.64-12.32-7.24a16.79,16.79,0,0,0-7.53,0L155,82.93c-2.41,1-4.95.49-7.44.49-10.21,0-20.43,0-30.64,0-2.34,0-4.75.17-6.75-1.35l0,0c-.53-1.38-.87-2.74.36-4,2-1.13,4.27-.94,6.47-.94q49.29,0,98.58,0c2.19,0,4.45-.17,6.45,1a1.62,1.62,0,0,1,.36,2.35,10.76,10.76,0,0,1-3.84,7.77c-1.48-1.33-3.32-1.49-5.27-1.48q-12.59.06-25.16,0A9.1,9.1,0,0,0,182.4,88.31Z"/><path class="cls-5" d="M221.42,205c1.37-.93.84-2.27.9-3.48,0-6.8-.21-7-7.2-7q-19.83,0-39.65-.1c2-1.38,4.64-2,5.86-4.3,2.07-2.31,4.6-4.21,6.72-6.47,9.78-5.43,19-3.75,27.64,2.16,6.22,4.26,8.06,10.46,7.52,17.32-.14,1.82-.15,3.77-1.8,5.19C220.26,207.18,220.51,206.07,221.42,205Z"/><path class="cls-6" d="M222.32,137.83H110.26c-.65-1.36-.87-2.67.27-3.92a9.11,9.11,0,0,1,5-.94c15.7.15,31.4-.5,47.09.45,3.86,1.79,7.24-1.08,10.93-.94,9.45-.95,18.95-.32,28.42-.34,6.29,0,12.65-.77,18.89.63A3.49,3.49,0,0,1,222.32,137.83Z"/><path class="cls-7" d="M218.71,213.19c-5,6.87-12.17,9.29-20.74,8.51-8-.73-14.11-4.36-17.53-11.3,0-2.65,2.35-3,4.28-3.09,10.26-.47,20.54-.45,30.78-.05C219.83,207.43,220.45,209,218.71,213.19Z"/><path class="cls-8" d="M110.27,78.53c0,1.18,0,2.37-.06,3.54-3.61-9.82.71-19.36,11.13-24.57,6.06-2.21,12.2-3,18.49-.87l-.07-.06c1.07,1,2.72.93,3.77,1.91a15.46,15.46,0,0,1,8.7,8.53c-1.67,1.86-4,1.46-6.16,1.47-9.18.08-18.35,0-27.52,0-3,0-5.73.36-6.74,3.53a11.28,11.28,0,0,0-.23,2.24A5.48,5.48,0,0,1,110.27,78.53Z"/><path class="cls-9" d="M242.25,206c-2.42-6.53-1-12.15,4.68-16.78,7.5-3.71,15.2-2.48,22.92-.82,3.93,2.93,7.26,6.16,6.81,11.31-2,1.4-4.47,1.25-6.79,1.28-6,.11-11.95.28-17.9,0C247.31,200.7,243.68,201.36,242.25,206Z"/><path class="cls-8" d="M212.58,58.49c5.17,3.15,9.32,7,10,13a1.37,1.37,0,0,1-1.57-.1c-1.67-1.85-3.89-2.1-6.35-2.08-10,.09-20.08.07-30.12,0-2.14,0-4.46.34-6.17-1.4,3.69-3.63,6-8.56,11.57-10.42C197.49,57.19,205.12,56.05,212.58,58.49Z"/><path class="cls-10" d="M274,67.13A11.23,11.23,0,0,1,276.67,77c-8.63.6-17.27.25-25.9.19-3.77,0-6.81.51-8.43,4-2.12-5.38-1.65-10.39,2.51-14.87a6.06,6.06,0,0,1,4.69-1.43,139.81,139.81,0,0,0,18.76,0A6.78,6.78,0,0,1,274,67.13Z"/><path class="cls-11" d="M268,124.74c5,2.78,8.94,6.26,8.67,12.22-5.95,1.08-12,.14-17.95.44a30,30,0,0,1-4.74,0c-5.47-.58-10.34-.24-11.75,5.92-1.84-4.73-1.45-9.23,1.78-13.4a54.93,54.93,0,0,1,5.91-5.26h0A100.61,100.61,0,0,1,268,124.74Z"/><path class="cls-12" d="M222.32,137.83a6.28,6.28,0,0,0-.91-4.37c-2.72-3.29-6.36-4.11-10.75-4-8.92.27-17.86,0-26.78.15-1.24,0-2.52.2-3.61-.58a23.15,23.15,0,0,1,26.63-10.71c10.88,3.06,17.5,12.23,16.28,22.63a7,7,0,0,1-.81,1.93C222.36,141.21,222.34,139.52,222.32,137.83Z"/><path class="cls-13" d="M182.4,88.31c-.29-1.67-.5-2.91,2.31-2.87q15.76.25,31.51,0c2.65,0,2.85.94,2.38,2.78C209.2,99.83,192.19,99.86,182.4,88.31Z"/><path class="cls-14" d="M218.56,150.67c-8.43,11.69-27.08,11.79-36.08.18-1.27-2.31.19-3.49,2.32-3.62a285.58,285.58,0,0,1,31.24,0C218.06,147.28,219.85,148.21,218.56,150.67Z"/><path class="cls-3" d="M242.25,206c.18-6.27.18-6.26,7-6.27l27.43,0a12.07,12.07,0,0,1-3.88,11.51c-1.81-1.37-3.94-1.5-6.19-1.52-7.51-.06-15,.27-22.51-.14A4.42,4.42,0,0,1,242.25,206Z"/><path class="cls-2" d="M242.19,143.31c.34-7.23.34-7.23,8.23-7.23,6.92,0,13.83,0,20.74,0a11,11,0,0,1,5.47.91,10.32,10.32,0,0,1-1.86,8.91,304.62,304.62,0,0,1-31.55-.14A2.74,2.74,0,0,1,242.19,143.31Z"/><path class="cls-15" d="M112.12,211.14c-.14-2.06,1-2.73,3.16-2.73,11.2.07,22.38,0,33.58,0,1.44,0,2.95-.13,3.2,1.73a14.58,14.58,0,0,1-6.36,7.12c-9.71.25-19.44,1.52-29-.91A10.92,10.92,0,0,1,112.12,211.14Z"/><path class="cls-16" d="M87.43,143.92c-.3,6.09-7.64,10.25-14.24,11A18,18,0,0,1,56,146c-.91-2.59,1.07-3.63,3.1-3.83a145.64,145.64,0,0,1,25.32-.09A4.06,4.06,0,0,1,87.43,143.92Z"/><path class="cls-2" d="M23.89,144.16c-2.48,4.84-7,6.41-12.36,6S2.43,147.37.9,142.46c-.57-1.1-.2-2.3-.38-3.43-.47-3.12,1.34-4.19,4.35-4.28,5.06-.14,10.13-.18,15.17,0s5.9,1.33,5.09,5.7C24.9,141.72,24.24,142.89,23.89,144.16Z"/><path class="cls-14" d="M150.15,150c-8.79,13.72-29.72,11.51-37.08.1.39-2.48,2.66-2.2,4.37-2.23q14.12-.3,28.24,0C147.4,147.88,149.62,147.6,150.15,150Z"/><path class="cls-17" d="M110.27,201.47c0,1.83-.08,3.67-.11,5.5-2.31-6.82-1.43-13.1,3.79-18.63,8.6-1,17.23-.27,25.85-.37,3.24,0,6.57-1,9.76.3,2,2.51,4.15,4.9,7.39,6.15-1.83,1.07-3.89,1-5.93.94H117.1C110.29,195.36,110.29,195.36,110.27,201.47Z"/><path class="cls-10" d="M53.76,75c.45-2.79.63-5.66,3-7.81a5.09,5.09,0,0,1,3.73-1.48c7.64.37,15.29.31,22.94,0a3.55,3.55,0,0,1,2.17.66c4,4.44,5.2,9.32,2.78,14.78-1.52-4-4.72-5-9.14-4.78-6.42.3-12.88.12-19.32,0C57.78,76.34,55.47,76.66,53.76,75Z"/><path class="cls-3" d="M57.94,211.21a10.45,10.45,0,0,1-3.84-8.65c-1-2,.63-2.93,2.17-3,10.65-.29,21.32-1.46,31.91.61,1.18,1.87.78,3.82.27,5.77-.12,1.37-.33,2.71-2,3.33-7.29.73-14.61.32-21.92.38C62.2,209.71,59.89,209.73,57.94,211.21Z"/><path class="cls-18" d="M117.82,265.12c0-5.63,2.85-9.53,8.22-11.34a13.8,13.8,0,0,1,14.5,3.58c3.53,3.8,3.93,8.44,1.16,13.19-1.17-3.66-4-4.47-7.83-4.2s-7.48.08-11.22,0C120.92,266.35,119.19,266.26,117.82,265.12Z"/><path class="cls-19" d="M110.2,82.05c12.78,0,25.56,0,38.34-.07a29.73,29.73,0,0,1,6.48,1c-2.55,1.53-3.57,4.28-5.81,6.06-6.53,1-13.1.29-19.65.43-4.83.1-9.68,0-14.52.32A13.15,13.15,0,0,1,110.2,82.05Z"/><path class="cls-20" d="M110.3,134.34c0,1.16,0,2.32,0,3.49q-.06,3.19-.11,6.4c-2.73-8.38-.6-15.49,6.58-21.3a219.52,219.52,0,0,1,29.91,0c3.56,1.77,4.46,5.75,7.69,7.8-1,1-2.26.84-3.51.79-10.21-.43-20.42,0-30.63-.24C116.39,131.17,113.07,131.87,110.3,134.34Z"/><path class="cls-5" d="M88.46,206c0-1.8,0-3.59-.07-5.38-1.78-4.38-5.34-5.26-10.09-4.93-5.32.37-10.69.17-16,0-2.34-.05-4.8,0-6.34-2.13,4.23-7.9,13.89-11.16,22.86-7.72C87.34,189.14,91.5,197.78,88.46,206Z"/><path class="cls-19" d="M87.53,83c-5,11.4-23.92,12.65-30.59,1.88-1.54-2.37-.86-3.92,2.17-4.06,8.5-.37,17-.4,25.51,0C85.94,80.94,87.61,81.12,87.53,83Z"/><path class="cls-21" d="M87.53,83c-.85-1.15-2.16-1-3.39-1C76,82,67.85,82.13,59.7,82c-2.67,0-3.26.83-2.75,2.94C54.3,82,53.56,78.61,53.76,75c9.33,0,18.68.08,28,.09,6.64,0,6.64,0,6.63,6.07A1.88,1.88,0,0,1,87.53,83Z"/><path class="cls-10" d="M110.28,72.43c.37-4,2.58-5.43,7.12-5.33,11.6.24,23.22,0,34.84-.09l-.1,0c.89,1.31,2.53,1.31,3.85,1.87l6.49,1.84c-.89,2.78-3.8,2.56-5.81,2.63-14.46.56-28.94.3-43.42.19A4.8,4.8,0,0,1,110.28,72.43Z"/><path class="cls-22" d="M243.23,145.74c.89-1.14,2.21-1,3.46-1H270.9c1.39,0,2.9-.26,3.87,1.08-3,6.32-8.9,9-15.86,9S246.24,152,243.23,145.74Z"/><path class="cls-4" d="M242.33,81.12c-.77-4.1.95-5.5,5.57-5.3,8,.34,16,.07,24,.11,1.64,0,3.51-.54,4.79,1a6.76,6.76,0,0,1-1.23,5.09c-1,2-2.77,2.46-5.05,2.34-7.69-.38-15.4-.35-23.09,0-1.68.07-3.12-.16-4.17-1.47A1.71,1.71,0,0,1,242.33,81.12Z"/><path class="cls-23" d="M149.56,188.27a135.2,135.2,0,0,1-35.61.07C122.94,177.29,141,177.25,149.56,188.27Z"/><path class="cls-24" d="M306.8,144.2c-2.86-4.34-2.68-8.53.71-12.58a31.08,31.08,0,0,0,3.12-2.71l-.06.06c8.59-3.47,12.3-2.74,18.36,3.58a8.63,8.63,0,0,1,.92,9.87c-1.84-2-4.22-2.68-7.05-2.52a52.46,52.46,0,0,1-8.41,0C310.44,139.46,307.84,140.56,306.8,144.2Z"/><path class="cls-25" d="M117.82,265.12h18.49c6,0,6,0,5.39,5.43a12.71,12.71,0,0,1-14.56,5.95C121.37,275,117.69,270.56,117.82,265.12Z"/><path class="cls-26" d="M306.8,144.2c-.47-5.5-.47-5.5,5.79-5.5,4.26,0,8.52.16,12.76,0,3.17-.17,4.82.7,4.5,3.79-1.46,5-5.36,7.37-10.64,7.75S309.32,149,306.8,144.2Z"/><path class="cls-27" d="M110.28,72.43q21.33,0,42.67,0a24.52,24.52,0,0,0,9.54-1.71l7.62,0c15.88.61,31.75.37,47.63.33a8,8,0,0,1,3.67.53c.38,0,.75,0,1.12,0a11.27,11.27,0,0,1-.09,8.93c-.05-.64-.08-1.28-.13-1.92-2.09-3.16-5.51-3-8.86-3q-47.49,0-95,0c-2.79,0-5.75.5-8.2-1.38C110.27,73.59,110.28,73,110.28,72.43Z"/><path class="cls-13" d="M115,89.74c.18-1.26,1.08-1.62,2.33-1.62,10.08,0,20.16,0,30.24.08.53,0,1.06.5,1.59.77A23,23,0,0,1,115,89.74Z"/><path class="cls-16" d="M218.56,150.61c.14-2.54-1.08-3.1-3-3.09q-15.18.07-30.33,0c-2,0-2.93.95-2.78,3.32a6,6,0,0,1-2.07-3.93c.38-2.73-3.9-2.59-2.7-4.94s4.09-1.12,6.2-1.13c12.61-.06,25.23,0,37.85.09-.1,1.07-.19,2.15-.29,3.21-.76,1.54-1.15,3.27-1.86,4.83C219.54,149.78,219.35,150.47,218.56,150.61Z"/><path class="cls-11" d="M180.27,129.05c4.25-1.53,8.7-.7,13.07-.79,6.91-.14,13.85.24,20.73-.13,4.6-.24,6.7,1.46,7.34,5.33q-17.17,0-34.35,0c-4.53,0-9.08.2-13.5-1C175.57,131,178.49,130.94,180.27,129.05Z"/><path class="cls-16" d="M150.15,150a3.06,3.06,0,0,0-2.54-.83H116c-1.1,0-2.23,0-3,.93a5.2,5.2,0,0,1-1.95-3.35c-.11-2.3,1.23-2.86,3.53-2.85,12.23.07,24.46,0,36.69,0,1.52,0,3.3-.34,3.59,1.8C152,145.94,152.39,149.17,150.15,150Z"/><path class="cls-19" d="M243.12,82.93c8.28,0,16.57,0,24.85-.08,2.48,0,5.27,1.69,7.46-.79-2.6,6.89-8.47,10-15.81,10.2S246.27,89.53,243.12,82.93Z"/><path class="cls-2" d="M87.43,143.92c-9.23-1.81-18.57-.56-27.85-.76-1.79,0-3.37.85-3.6,2.83a10.59,10.59,0,0,1-1.89-9.05,10.33,10.33,0,0,1,1.6-.88c9.83-1,19.69-.56,29.53-.27,3.87.12,4.22,1.34,3.2,7.21C88.08,143.3,87.75,143.61,87.43,143.92Z"/><path class="cls-28" d="M211,6.15c2.15,3,3,6.23,1.1,9.67-7.11,2.43-14.4,1.21-21.63.8-1.92-.1-2.65-1.79-3-3.41s-.58-3.06.45-4.47c1-1.19,1.65-2.82,3.76-2.85C198.14,5.82,204.6,5.2,211,6.15Z"/><path class="cls-29" d="M88.41,143c0-6.05,0-6.05-6.67-6.05H55.15c-.82-5.73,1.07-7.65,7.12-7.5,6.61.16,13.23.19,19.84,0,1.57-.05,3.16-.37,4.6.5C89.83,134,90.56,138.33,88.41,143Z"/><path class="cls-30" d="M55.93,193.57c8.5,1.91,17.14.63,25.73.87,6.3.17,6.3,0,6.74,6.16-10,0-19.89,0-29.83,0-1.75,0-4-.69-4.46,1.94A10.12,10.12,0,0,1,55.93,193.57Z"/><path class="cls-31" d="M190,257.89a2.38,2.38,0,0,1,1.67-1.61c4.85-.88,9.76,0,14.63-.42,2.36-.22,3.46,1.75,4.85,3.11a9,9,0,0,1,.81,10.49c-2.23-1.89-4.93-2.15-7.83-2.29-5.31-.25-10.6.91-15.9-.05C186.71,263.72,188.69,260.86,190,257.89Z"/><path class="cls-10" d="M221.42,71.55c-1.7,1-3.59.89-5.48.89q-18.16,0-36.34,0a24.26,24.26,0,0,1-9.48-1.75L178.33,68c12.87,0,25.75.24,38.62,0C220.33,67.87,221.54,68.66,221.42,71.55Z"/><path class="cls-32" d="M86.71,129.9c-8.18,1.92-16.5.71-24.74.88-5.67.11-6.38.48-6.82,6.16H54.08c.52-7.29,5.75-12.85,13.7-14.55A18,18,0,0,1,86.71,129.9Z"/><path class="cls-29" d="M110.3,134.34c.79-3.3,2.72-4.58,6.66-4.47,10.11.3,20.24.06,30.36.13,2.34,0,4.67.45,7,.7l8.3,2.71a27.86,27.86,0,0,1-7.9.94C139.93,134.3,125.12,134.34,110.3,134.34Z"/><path class="cls-25" d="M188.25,266.86c6.48-1.47,13.09-.66,19.65-.89,2.73-.1,4.21.86,4,3.5-4,8.4-13.62,10-20.93,3.57-.89-1.08-1.18-2.45-2.11-3.51C188.73,268.63,187.57,267.92,188.25,266.86Z"/><path class="cls-15" d="M244.08,209.55c.79-1.17,2.08-1.11,3.33-1.11,7.68,0,15.36.12,23-.07,2.77-.07,2.68,1.13,2.34,2.84C264.66,220.3,250.77,219.48,244.08,209.55Z"/><path class="cls-33" d="M23.89,144.16c.89-8.08.89-8.08-8.13-8.08H8.19c-7,0-7,0-7.29,6.38-2.17-5.55-.35-11,4.66-14a14.1,14.1,0,0,1,16.14,1.2C26.19,133.47,27,139,23.89,144.16Z"/><path class="cls-34" d="M57.94,211.21c.32-1-1.31-2.8,1.42-2.77,8.81.1,17.62.19,26.43.32.24,0,.47.36.71.54C80.84,219.34,66.14,220.33,57.94,211.21Z"/><path class="cls-28" d="M118.59,15.83a7.84,7.84,0,0,1,0-8c5.52-1.43,11.1,0,16.66-.31,2.5-.15,5.35-1,7.49,1.18a6.8,6.8,0,0,1-.24,7A47,47,0,0,1,118.59,15.83Z"/><path class="cls-35" d="M218.71,213.19c1.44-4-.54-4.92-4.64-4.82-9.09.23-18.19.08-27.28.06-2.37,0-4.76-.11-6.35,2l-4.68-2.64c-.21-1-2.48-.29-1.84-1.94,1.85-1.06,3.92-.87,6-.87h41.54c0,1.11,0,2.23,0,3.33C220.32,209.84,220.81,212.11,218.71,213.19Z"/><path class="cls-8" d="M85.61,66.32c-8.37,1.61-16.81.9-25.22.51a12.7,12.7,0,0,0-3.62.3C63.4,57.16,79.41,56.71,85.61,66.32Z"/><path class="cls-36" d="M142.79,8.73c-4.5,0-9-.06-13.49.09a48,48,0,0,1-10.65-1c2.2-5.28,6.37-8,12.16-7.84S141,3.3,142.79,8.73Z"/><path class="cls-37" d="M187.47,13.21c1.16,2,2.89,2.65,5.39,2.6,6.42-.14,12.85,0,19.28,0-2.07,5.58-7,8.49-13.46,7.91A11.91,11.91,0,0,1,187.47,13.21Z"/><path class="cls-38" d="M118.59,15.83l24-.1c-2,5.25-6.17,8.05-12,8.07S120.53,21,118.59,15.83Z"/><path class="cls-39" d="M274,67.13a11.65,11.65,0,0,0-5.66-1c-6.73.31-13.53.75-20.25-.26a10.08,10.08,0,0,0-3.2.4C252.36,56.73,267.37,57.19,274,67.13Z"/><path class="cls-40" d="M146.64,122.9a98.34,98.34,0,0,1-29.91,0C125.87,115.58,138.19,115.56,146.64,122.9Z"/><path class="cls-41" d="M211,6.15C205.42,8,199.59,6.7,193.88,7c-2.25.1-4.3.21-5.95,1.76A12.28,12.28,0,0,1,199.32,0C204.6-.29,208.73,1.87,211,6.15Z"/><path class="cls-42" d="M116.65,216.38c8.17,0,16.35,0,24.53-.11a10.05,10.05,0,0,1,4.52,1A23.13,23.13,0,0,1,116.65,216.38Z"/><path class="cls-43" d="M269.85,188.39c-6.19-.09-12.4-.08-18.6-.34-1.72-.07-2.66,1.54-4.32,1.16C253.44,183.26,263.67,182.89,269.85,188.39Z"/><path class="cls-44" d="M212.58,58.49c-3.06-1-6.14-.05-9.19,0a78.76,78.76,0,0,1-13.48-1C197.66,53.71,205.25,53.66,212.58,58.49Z"/><path class="cls-45" d="M211.11,259a9.16,9.16,0,0,0-7.51-1.86,24.62,24.62,0,0,1-12-.82C198.55,251,206.67,252.13,211.11,259Z"/><path class="cls-46" d="M268,124.74a38.67,38.67,0,0,1-18.12-.08C256.1,121,262.51,121,268,124.74Z"/><path class="cls-1" d="M173.92,205.82l1.84,1.94c-7.85-2.74-15.38-1.66-22.75,1.57,4.81-4.08,10.6-4.78,16.79-4Z"/><path class="cls-47" d="M328.93,132.55c-1.34-1-2.71-2-4-3-4.62-3.63-9.5-1.68-14.34-.61C317.2,124.53,324.82,126,328.93,132.55Z"/><path class="cls-48" d="M139.83,56.63c-6.25-1.38-12.38-.5-18.49.87A20.13,20.13,0,0,1,139.83,56.63Z"/><path class="cls-45" d="M188.25,266.86c.3.87.61,1.74.9,2.62.43.4.38.76-.14,1.06-3-4.42-2.52-8.63,1-12.65C189.74,260.94,187.47,263.66,188.25,266.86Z"/><path class="cls-49" d="M188.05,183.62c-1.39,2.91-3.92,4.8-6.72,6.47A13.87,13.87,0,0,1,188.05,183.62Z"/><path class="cls-46" d="M249.89,124.65a14.24,14.24,0,0,1-5.91,5.26A9.87,9.87,0,0,1,249.89,124.65Z"/><path class="cls-50" d="M162.56,81a8.17,8.17,0,0,1,7.53,0Z"/><path class="cls-48" d="M143.54,58.48c-1.53-.19-3-.53-3.77-1.9C141.33,56.7,142.82,57,143.54,58.48Z"/><path class="cls-2" d="M219.62,149.4a4.15,4.15,0,0,1,1.86-3.75A4.27,4.27,0,0,1,219.62,149.4Z"/><path class="cls-8" d="M156,68.89c-1.71.11-3.3,0-3.86-1.87A8.66,8.66,0,0,1,156,68.89Z"/><path class="cls-47" d="M310.63,128.91a3.79,3.79,0,0,1-3.12,2.71A4.3,4.3,0,0,1,310.63,128.91Z"/><path class="cls-31" d="M189,270.54c0-.36.1-.71.14-1.06A4.59,4.59,0,0,1,191,273,3.2,3.2,0,0,1,189,270.54Z"/><path class="cls-50" d="M110.27,74.17c35.82,0,71.63,0,107.45-.08,3.82,0,5.23,1.06,4.59,4.44h-112Z"/></g></g></svg>